<?xml version="1.0" encoding="UTF-8" standalone="no"?>
<!DOCTYPE svg PUBLIC "-//W3C//DTD SVG 1.1//EN"
 "http://www.w3.org/Graphics/SVG/1.1/DTD/svg11.dtd">
<!-- Generated by graphviz version 2.40.1 (20161225.0304)
 -->
<!-- Title: public.users Pages: 1 -->
<svg width="564pt" height="592pt"
 viewBox="0.00 0.00 563.50 592.00" xmlns="http://www.w3.org/2000/svg" xmlns:xlink="http://www.w3.org/1999/xlink">
<g id="graph0" class="graph" transform="scale(1 1) rotate(0) translate(4 588)">
<title>public.users</title>
<polygon fill="#ffffff" stroke="transparent" points="-4,4 -4,-588 559.5,-588 559.5,4 -4,4"/>
<!-- public.users -->
<g id="node1" class="node">
<title>public.users</title>
<polygon fill="#efefef" stroke="transparent" points="237,-195.5 237,-230.5 510,-230.5 510,-195.5 237,-195.5"/>
<polygon fill="none" stroke="#000000" points="237,-195.5 237,-230.5 510,-230.5 510,-195.5 237,-195.5"/>
<text text-anchor="start" x="276.8662" y="-208.3" font-family="Arial Bold" font-size="18.00" fill="#000000">public.users</text>
<text text-anchor="start" x="372.88" y="-208.3" font-family="Arial" font-size="14.00" fill="#000000"> </text>
<text text-anchor="start" x="376.7706" y="-208.3" font-family="Arial" font-size="14.00" fill="#666666">[BASE TABLE]</text>
<polygon fill="none" stroke="#000000" points="237,-165.5 237,-195.5 510,-195.5 510,-165.5 237,-165.5"/>
<text text-anchor="start" x="244" y="-176.9" font-family="Arial" font-size="14.00" fill="#000000">id </text>
<text text-anchor="start" x="258.7798" y="-176.9" font-family="Arial" font-size="14.00" fill="#666666">[integer]</text>
<polygon fill="none" stroke="#000000" points="237,-135.5 237,-165.5 510,-165.5 510,-135.5 237,-135.5"/>
<text text-anchor="start" x="244" y="-146.9" font-family="Arial" font-size="14.00" fill="#000000">name </text>
<text text-anchor="start" x="282.899" y="-146.9" font-family="Arial" font-size="14.00" fill="#666666">[varchar]</text>
<polygon fill="none" stroke="#000000" points="237,-105.5 237,-135.5 510,-135.5 510,-105.5 237,-105.5"/>
<text text-anchor="start" x="244" y="-116.9" font-family="Arial" font-size="14.00" fill="#000000">age </text>
<text text-anchor="start" x="271.2384" y="-116.9" font-family="Arial" font-size="14.00" fill="#666666">[integer]</text>
<polygon fill="none" stroke="#000000" points="237,-75.5 237,-105.5 510,-105.5 510,-75.5 237,-75.5"/>
<text text-anchor="start" x="244" y="-86.9" font-family="Arial" font-size="14.00" fill="#000000">created_at </text>
<text text-anchor="start" x="314.028" y="-86.9" font-family="Arial" font-size="14.00" fill="#666666">[timestamp without time zone]</text>
<polygon fill="none" stroke="#000000" points="237,-45.5 237,-75.5 510,-75.5 510,-45.5 237,-45.5"/>
<text text-anchor="start" x="243.9636" y="-56.9" font-family="Arial" font-size="14.00" fill="#000000">updated_at </text>
<text text-anchor="start" x="317.8962" y="-56.9" font-family="Arial" font-size="14.00" fill="#666666">[timestamp without time zone]</text>
<polygon fill="none" stroke="#000000" stroke-width="3" points="235,-44.5 235,-232.5 511,-232.5 511,-44.5 235,-44.5"/>
</g>
<!-- public.user_items -->
<g id="node2" class="node">
<title>public.user_items</title>
<polygon fill="#efefef" stroke="transparent" points="237,-505.5 237,-540.5 510,-540.5 510,-505.5 237,-505.5"/>
<polygon fill="none" stroke="#000000" points="237,-505.5 237,-540.5 510,-540.5 510,-505.5 237,-505.5"/>
<text text-anchor="start" x="254.8657" y="-518.3" font-family="Arial Bold" font-size="18.00" fill="#000000">public.user_items</text>
<text text-anchor="start" x="394.8805" y="-518.3" font-family="Arial" font-size="14.00" fill="#000000"> </text>
<text text-anchor="start" x="398.7711" y="-518.3" font-family="Arial" font-size="14.00" fill="#666666">[BASE TABLE]</text>
<polygon fill="none" stroke="#000000" points="237,-475.5 237,-505.5 510,-505.5 510,-475.5 237,-475.5"/>
<text text-anchor="start" x="244" y="-486.9" font-family="Arial" font-size="14.00" fill="#000000">id </text>
<text text-anchor="start" x="258.7798" y="-486.9" font-family="Arial" font-size="14.00" fill="#666666">[integer]</text>
<polygon fill="none" stroke="#000000" points="237,-445.5 237,-475.5 510,-475.5 510,-445.5 237,-445.5"/>
<text text-anchor="start" x="244" y="-456.9" font-family="Arial" font-size="14.00" fill="#000000">user_id </text>
<text text-anchor="start" x="293.7882" y="-456.9" font-family="Arial" font-size="14.00" fill="#666666">[integer]</text>
<polygon fill="none" stroke="#000000" points="237,-415.5 237,-445.5 510,-445.5 510,-415.5 237,-415.5"/>
<text text-anchor="start" x="244" y="-426.9" font-family="Arial" font-size="14.00" fill="#000000">name </text>
<text text-anchor="start" x="282.899" y="-426.9" font-family="Arial" font-size="14.00" fill="#666666">[varchar]</text>
<polygon fill="none" stroke="#000000" points="237,-385.5 237,-415.5 510,-415.5 510,-385.5 237,-385.5"/>
<text text-anchor="start" x="244" y="-396.9" font-family="Arial" font-size="14.00" fill="#000000">created_at </text>
<text text-anchor="start" x="314.028" y="-396.9" font-family="Arial" font-size="14.00" fill="#666666">[timestamp without time zone]</text>
<polygon fill="none" stroke="#000000" points="237,-355.5 237,-385.5 510,-385.5 510,-355.5 237,-355.5"/>
<text text-anchor="start" x="243.9636" y="-366.9" font-family="Arial" font-size="14.00" fill="#000000">updated_at </text>
<text text-anchor="start" x="317.8962" y="-366.9" font-family="Arial" font-size="14.00" fill="#666666">[timestamp without time zone]</text>
</g>
<!-- public.user_items&#45;&gt;public.users -->
<g id="edge1" class="edge">
<title>public.user_items:user_id&#45;&gt;public.users:id</title>
<path fill="none" stroke="#000000" d="M227.0259,-457.9069C174.9774,-429.6795 178.3021,-180.5 237,-180.5"/>
<polygon fill="#000000" stroke="#000000" points="227.3217,-457.9837 235.8677,-464.8552 232.1609,-459.2419 237,-460.5 237,-460.5 237,-460.5 232.1609,-459.2419 238.1323,-456.1448 227.3217,-457.9837 227.3217,-457.9837"/>
<text text-anchor="start" x="7.3345" y="-470.5" font-family="Arial" font-size="10.00" fill="#000000">FOREIGN KEY (user_id) REFERENCES users(id)</text>
</g>
</g>
</svg>
