<?xml version="1.0" encoding="UTF-8" standalone="no"?>
<!DOCTYPE svg PUBLIC "-//W3C//DTD SVG 1.1//EN"
 "http://www.w3.org/Graphics/SVG/1.1/DTD/svg11.dtd">
<!-- Generated by graphviz version 2.40.1 (20161225.0304)
 -->
<!-- Title: public.user_items Pages: 1 -->
<svg width="564pt" height="592pt"
 viewBox="0.00 0.00 563.50 592.00" xmlns="http://www.w3.org/2000/svg" xmlns:xlink="http://www.w3.org/1999/xlink">
<g id="graph0" class="graph" transform="scale(1 1) rotate(0) translate(4 588)">
<title>public.user_items</title>
<polygon fill="#ffffff" stroke="transparent" points="-4,4 -4,-588 559.5,-588 559.5,4 -4,4"/>
<!-- public.user_items -->
<g id="node1" class="node">
<title>public.user_items</title>
<polygon fill="#efefef" stroke="transparent" points="237,-502.5 237,-537.5 510,-537.5 510,-502.5 237,-502.5"/>
<polygon fill="none" stroke="#000000" points="237,-502.5 237,-537.5 510,-537.5 510,-502.5 237,-502.5"/>
<text text-anchor="start" x="254.8657" y="-515.3" font-family="Arial Bold" font-size="18.00" fill="#000000">public.user_items</text>
<text text-anchor="start" x="394.8805" y="-515.3" font-family="Arial" font-size="14.00" fill="#000000"> </text>
<text text-anchor="start" x="398.7711" y="-515.3" font-family="Arial" font-size="14.00" fill="#666666">[BASE TABLE]</text>
<polygon fill="none" stroke="#000000" points="237,-472.5 237,-502.5 510,-502.5 510,-472.5 237,-472.5"/>
<text text-anchor="start" x="244" y="-483.9" font-family="Arial" font-size="14.00" fill="#000000">id </text>
<text text-anchor="start" x="258.7798" y="-483.9" font-family="Arial" font-size="14.00" fill="#666666">[integer]</text>
<polygon fill="none" stroke="#000000" points="237,-442.5 237,-472.5 510,-472.5 510,-442.5 237,-442.5"/>
<text text-anchor="start" x="244" y="-453.9" font-family="Arial" font-size="14.00" fill="#000000">user_id </text>
<text text-anchor="start" x="293.7882" y="-453.9" font-family="Arial" font-size="14.00" fill="#666666">[integer]</text>
<polygon fill="none" stroke="#000000" points="237,-412.5 237,-442.5 510,-442.5 510,-412.5 237,-412.5"/>
<text text-anchor="start" x="244" y="-423.9" font-family="Arial" font-size="14.00" fill="#000000">name </text>
<text text-anchor="start" x="282.899" y="-423.9" font-family="Arial" font-size="14.00" fill="#666666">[varchar]</text>
<polygon fill="none" stroke="#000000" points="237,-382.5 237,-412.5 510,-412.5 510,-382.5 237,-382.5"/>
<text text-anchor="start" x="244" y="-393.9" font-family="Arial" font-size="14.00" fill="#000000">created_at </text>
<text text-anchor="start" x="314.028" y="-393.9" font-family="Arial" font-size="14.00" fill="#666666">[timestamp without time zone]</text>
<polygon fill="none" stroke="#000000" points="237,-352.5 237,-382.5 510,-382.5 510,-352.5 237,-352.5"/>
<text text-anchor="start" x="243.9636" y="-363.9" font-family="Arial" font-size="14.00" fill="#000000">updated_at </text>
<text text-anchor="start" x="317.8962" y="-363.9" font-family="Arial" font-size="14.00" fill="#666666">[timestamp without time zone]</text>
<polygon fill="none" stroke="#000000" stroke-width="3" points="235,-351.5 235,-539.5 511,-539.5 511,-351.5 235,-351.5"/>
</g>
<!-- public.users -->
<g id="node2" class="node">
<title>public.users</title>
<polygon fill="#efefef" stroke="transparent" points="237,-192.5 237,-227.5 510,-227.5 510,-192.5 237,-192.5"/>
<polygon fill="none" stroke="#000000" points="237,-192.5 237,-227.5 510,-227.5 510,-192.5 237,-192.5"/>
<text text-anchor="start" x="276.8662" y="-205.3" font-family="Arial Bold" font-size="18.00" fill="#000000">public.users</text>
<text text-anchor="start" x="372.88" y="-205.3" font-family="Arial" font-size="14.00" fill="#000000"> </text>
<text text-anchor="start" x="376.7706" y="-205.3" font-family="Arial" font-size="14.00" fill="#666666">[BASE TABLE]</text>
<polygon fill="none" stroke="#000000" points="237,-162.5 237,-192.5 510,-192.5 510,-162.5 237,-162.5"/>
<text text-anchor="start" x="244" y="-173.9" font-family="Arial" font-size="14.00" fill="#000000">id </text>
<text text-anchor="start" x="258.7798" y="-173.9" font-family="Arial" font-size="14.00" fill="#666666">[integer]</text>
<polygon fill="none" stroke="#000000" points="237,-132.5 237,-162.5 510,-162.5 510,-132.5 237,-132.5"/>
<text text-anchor="start" x="244" y="-143.9" font-family="Arial" font-size="14.00" fill="#000000">name </text>
<text text-anchor="start" x="282.899" y="-143.9" font-family="Arial" font-size="14.00" fill="#666666">[varchar]</text>
<polygon fill="none" stroke="#000000" points="237,-102.5 237,-132.5 510,-132.5 510,-102.5 237,-102.5"/>
<text text-anchor="start" x="244" y="-113.9" font-family="Arial" font-size="14.00" fill="#000000">age </text>
<text text-anchor="start" x="271.2384" y="-113.9" font-family="Arial" font-size="14.00" fill="#666666">[integer]</text>
<polygon fill="none" stroke="#000000" points="237,-72.5 237,-102.5 510,-102.5 510,-72.5 237,-72.5"/>
<text text-anchor="start" x="244" y="-83.9" font-family="Arial" font-size="14.00" fill="#000000">created_at </text>
<text text-anchor="start" x="314.028" y="-83.9" font-family="Arial" font-size="14.00" fill="#666666">[timestamp without time zone]</text>
<polygon fill="none" stroke="#000000" points="237,-42.5 237,-72.5 510,-72.5 510,-42.5 237,-42.5"/>
<text text-anchor="start" x="243.9636" y="-53.9" font-family="Arial" font-size="14.00" fill="#000000">updated_at </text>
<text text-anchor="start" x="317.8962" y="-53.9" font-family="Arial" font-size="14.00" fill="#666666">[timestamp without time zone]</text>
</g>
<!-- public.user_items&#45;&gt;public.users -->
<g id="edge1" class="edge">
<title>public.user_items:user_id&#45;&gt;public.users:id</title>
<path fill="none" stroke="#000000" d="M227.0259,-454.9069C174.9774,-426.6795 178.3021,-177.5 237,-177.5"/>
<polygon fill="#000000" stroke="#000000" points="227.3217,-454.9837 235.8677,-461.8552 232.1609,-456.2419 237,-457.5 237,-457.5 237,-457.5 232.1609,-456.2419 238.1323,-453.1448 227.3217,-454.9837 227.3217,-454.9837"/>
<text text-anchor="start" x="7.3345" y="-467.5" font-family="Arial" font-size="10.00" fill="#000000">FOREIGN KEY (user_id) REFERENCES users(id)</text>
</g>
</g>
</svg>
