<?xml version="1.0" encoding="UTF-8" standalone="no"?>
<!DOCTYPE svg PUBLIC "-//W3C//DTD SVG 1.1//EN"
 "http://www.w3.org/Graphics/SVG/1.1/DTD/svg11.dtd">
<!-- Generated by graphviz version 2.40.1 (20161225.0304)
 -->
<!-- Title: playground Pages: 1 -->
<svg width="561pt" height="586pt"
 viewBox="0.00 0.00 560.50 586.00" xmlns="http://www.w3.org/2000/svg" xmlns:xlink="http://www.w3.org/1999/xlink">
<g id="graph0" class="graph" transform="scale(1 1) rotate(0) translate(4 582)">
<title>playground</title>
<polygon fill="#ffffff" stroke="transparent" points="-4,4 -4,-582 556.5,-582 556.5,4 -4,4"/>
<!-- public.users -->
<g id="node1" class="node">
<title>public.users</title>
<polygon fill="#efefef" stroke="transparent" points="237,-192.5 237,-227.5 510,-227.5 510,-192.5 237,-192.5"/>
<polygon fill="none" stroke="#000000" points="237,-192.5 237,-227.5 510,-227.5 510,-192.5 237,-192.5"/>
<text text-anchor="start" x="276.8662" y="-205.3" font-family="Arial Bold" font-size="18.00" fill="#000000">public.users</text>
<text text-anchor="start" x="372.88" y="-205.3" font-family="Arial" font-size="14.00" fill="#000000"> </text>
<text text-anchor="start" x="376.7706" y="-205.3" font-family="Arial" font-size="14.00" fill="#666666">[BASE TABLE]</text>
<polygon fill="none" stroke="#000000" points="237,-162.5 237,-192.5 510,-192.5 510,-162.5 237,-162.5"/>
<text text-anchor="start" x="244" y="-173.9" font-family="Arial" font-size="14.00" fill="#000000">id </text>
<text text-anchor="start" x="258.7798" y="-173.9" font-family="Arial" font-size="14.00" fill="#666666">[integer]</text>
<polygon fill="none" stroke="#000000" points="237,-132.5 237,-162.5 510,-162.5 510,-132.5 237,-132.5"/>
<text text-anchor="start" x="244" y="-143.9" font-family="Arial" font-size="14.00" fill="#000000">name </text>
<text text-anchor="start" x="282.899" y="-143.9" font-family="Arial" font-size="14.00" fill="#666666">[varchar]</text>
<polygon fill="none" stroke="#000000" points="237,-102.5 237,-132.5 510,-132.5 510,-102.5 237,-102.5"/>
<text text-anchor="start" x="244" y="-113.9" font-family="Arial" font-size="14.00" fill="#000000">age </text>
<text text-anchor="start" x="271.2384" y="-113.9" font-family="Arial" font-size="14.00" fill="#666666">[integer]</text>
<polygon fill="none" stroke="#000000" points="237,-72.5 237,-102.5 510,-102.5 510,-72.5 237,-72.5"/>
<text text-anchor="start" x="244" y="-83.9" font-family="Arial" font-size="14.00" fill="#000000">created_at </text>
<text text-anchor="start" x="314.028" y="-83.9" font-family="Arial" font-size="14.00" fill="#666666">[timestamp without time zone]</text>
<polygon fill="none" stroke="#000000" points="237,-42.5 237,-72.5 510,-72.5 510,-42.5 237,-42.5"/>
<text text-anchor="start" x="243.9636" y="-53.9" font-family="Arial" font-size="14.00" fill="#000000">updated_at </text>
<text text-anchor="start" x="317.8962" y="-53.9" font-family="Arial" font-size="14.00" fill="#666666">[timestamp without time zone]</text>
</g>
<!-- public.user_items -->
<g id="node2" class="node">
<title>public.user_items</title>
<polygon fill="#efefef" stroke="transparent" points="237,-499.5 237,-534.5 510,-534.5 510,-499.5 237,-499.5"/>
<polygon fill="none" stroke="#000000" points="237,-499.5 237,-534.5 510,-534.5 510,-499.5 237,-499.5"/>
<text text-anchor="start" x="254.8657" y="-512.3" font-family="Arial Bold" font-size="18.00" fill="#000000">public.user_items</text>
<text text-anchor="start" x="394.8805" y="-512.3" font-family="Arial" font-size="14.00" fill="#000000"> </text>
<text text-anchor="start" x="398.7711" y="-512.3" font-family="Arial" font-size="14.00" fill="#666666">[BASE TABLE]</text>
<polygon fill="none" stroke="#000000" points="237,-469.5 237,-499.5 510,-499.5 510,-469.5 237,-469.5"/>
<text text-anchor="start" x="244" y="-480.9" font-family="Arial" font-size="14.00" fill="#000000">id </text>
<text text-anchor="start" x="258.7798" y="-480.9" font-family="Arial" font-size="14.00" fill="#666666">[integer]</text>
<polygon fill="none" stroke="#000000" points="237,-439.5 237,-469.5 510,-469.5 510,-439.5 237,-439.5"/>
<text text-anchor="start" x="244" y="-450.9" font-family="Arial" font-size="14.00" fill="#000000">user_id </text>
<text text-anchor="start" x="293.7882" y="-450.9" font-family="Arial" font-size="14.00" fill="#666666">[integer]</text>
<polygon fill="none" stroke="#000000" points="237,-409.5 237,-439.5 510,-439.5 510,-409.5 237,-409.5"/>
<text text-anchor="start" x="244" y="-420.9" font-family="Arial" font-size="14.00" fill="#000000">name </text>
<text text-anchor="start" x="282.899" y="-420.9" font-family="Arial" font-size="14.00" fill="#666666">[varchar]</text>
<polygon fill="none" stroke="#000000" points="237,-379.5 237,-409.5 510,-409.5 510,-379.5 237,-379.5"/>
<text text-anchor="start" x="244" y="-390.9" font-family="Arial" font-size="14.00" fill="#000000">created_at </text>
<text text-anchor="start" x="314.028" y="-390.9" font-family="Arial" font-size="14.00" fill="#666666">[timestamp without time zone]</text>
<polygon fill="none" stroke="#000000" points="237,-349.5 237,-379.5 510,-379.5 510,-349.5 237,-349.5"/>
<text text-anchor="start" x="243.9636" y="-360.9" font-family="Arial" font-size="14.00" fill="#000000">updated_at </text>
<text text-anchor="start" x="317.8962" y="-360.9" font-family="Arial" font-size="14.00" fill="#666666">[timestamp without time zone]</text>
</g>
<!-- public.user_items&#45;&gt;public.users -->
<g id="edge1" class="edge">
<title>public.user_items:user_id&#45;&gt;public.users:id</title>
<path fill="none" stroke="#000000" d="M227.1328,-451.9347C175.6419,-424.0098 178.931,-177.5 237,-177.5"/>
<polygon fill="#000000" stroke="#000000" points="227.3217,-451.9837 235.8677,-458.8552 232.1609,-453.2419 237,-454.5 237,-454.5 237,-454.5 232.1609,-453.2419 238.1323,-450.1448 227.3217,-451.9837 227.3217,-451.9837"/>
<text text-anchor="start" x="7.3345" y="-464.5" font-family="Arial" font-size="10.00" fill="#000000">FOREIGN KEY (user_id) REFERENCES users(id)</text>
</g>
</g>
</svg>
